<?xml version="1.0" encoding="utf-8"?>
<!-- Generator: Adobe Illustrator 22.1.0, SVG Export Plug-In . SVG Version: 6.00 Build 0)  -->
<svg version="1.1" id="Layer_1" xmlns="http://www.w3.org/2000/svg" xmlns:xlink="http://www.w3.org/1999/xlink" x="0px" y="0px"
	 width="27px" height="41px" viewBox="0 0 27 41" style="enable-background:new 0 0 27 41;" xml:space="preserve">
<circle style="fill:#FFFFFF;" cx="13.4" cy="13" r="11.9"/>
<path style="fill:#474747;" d="M13.5,0C6,0,0,6,0,13.5S8.9,41,13.5,41S27,20.8,27,13.5C26.8,6,20.8,0,13.5,0z M13.5,24.4
	c-6.2,0-11.3-5.1-11.3-11.3S7.3,1.8,13.5,1.8s11.3,5.1,11.3,11.3S19.7,24.4,13.5,24.4z"/>
<g transform="translate(0,-952.36218)">
	<path style="fill:#243533;" d="M7.4,958.6v1.1h3.4v-1.1H7.4z M6.5,960.5c-0.7,0-1.3,0.6-1.3,1.3v8.3c0,0.7,0.6,1.3,1.3,1.3h14.4
		c0.7,0,1.3-0.6,1.3-1.3v-8.3c0-0.7-0.6-1.3-1.3-1.3H6.5z M13.7,961.5c2.5,0,4.5,2,4.5,4.5s-2,4.5-4.5,4.5c-2.5,0-4.5-2-4.5-4.5
		S11.2,961.5,13.7,961.5z M19.7,961.7c0.6,0,1.2,0.5,1.2,1.2c0,0.6-0.5,1.2-1.2,1.2s-1.2-0.5-1.2-1.2
		C18.5,962.2,19,961.7,19.7,961.7z M13.7,962.6c-1.9,0-3.4,1.5-3.4,3.4s1.5,3.4,3.4,3.4c1.9,0,3.4-1.5,3.4-3.4
		S15.6,962.6,13.7,962.6z M13.7,964.1c1,0,1.9,0.8,1.9,1.9c0,1-0.8,1.9-1.9,1.9s-1.9-0.8-1.9-1.9C11.8,964.9,12.6,964.1,13.7,964.1z
		"/>
</g>
</svg>
